+8_ID_stride3.mot
nRows=12
nColumns=38

name +8_ID_stride3.mot
datacolumns 38
datarows 12
range 1.4450000000 1.5000000000
endheader
time	pelvis_tilt_moment	pelvis_list_moment	pelvis_rotation_moment	pelvis_tx_force	pelvis_ty_force	pelvis_tz_force	hip_flexion_r_moment	hip_adduction_r_moment	hip_rotation_r_moment	knee_angle_r_moment	ankle_angle_r_moment	subtalar_angle_r_moment	mtp_angle_r_moment	hip_flexion_l_moment	hip_adduction_l_moment	hip_rotation_l_moment	knee_angle_l_moment	ankle_angle_l_moment	subtalar_angle_l_moment	mtp_angle_l_moment	lumbar_extension_moment	lumbar_bending_moment	lumbar_rotation_moment	arm_flex_r_moment	arm_add_r_moment	arm_rot_r_moment	elbow_flex_r_moment	pro_sup_r_moment	wrist_flex_r_moment	wrist_dev_r_moment	arm_flex_l_moment	arm_add_l_moment	arm_rot_l_moment	elbow_flex_l_moment	pro_sup_l_moment	wrist_flex_l_moment	wrist_dev_l_moment
        1.4450000000	      -22.2225708177	       27.5620183034	        0.2246328105	        1.1004131463	       34.9240388089	      -97.6165588162	       11.0464633785	      -49.8519741686	       26.6990087106	       32.6675422687	     -211.0589382893	       47.3213680287	       -0.0146974862	        0.5888540715	        5.2975674491	       -2.7980009229	       -2.7586868990	        2.1332025160	       -0.0145970803	        0.1240620325	       42.9261873894	       10.8709226918	      -33.3357435191	        1.5551705571	       -1.6842898587	       -3.0553826478	        6.3590068185	       -0.2255480764	       -0.2139986093	       -0.6195549435	        7.9299620782	        6.0933035125	        3.9421054663	        6.5082612599	       -0.0132141796	        0.5413918777	       -0.4732466855	
        1.4500000000	      -17.5287085873	       16.9329490345	        0.2186637447	       24.0223082621	       31.2122920414	     -103.3191050518	        8.8096417208	      -51.8991487387	       26.6746557549	       24.8641493999	     -202.5453344607	       44.4631502963	       -0.0200605248	        1.4912520438	        2.8795936628	       -2.7131631546	       -2.1143229565	        2.2894256506	       -0.0664425901	        0.1281272333	       32.5287206679	       11.5684122114	      -36.4418321856	        1.2256743897	       -2.3471859212	       -3.5267670901	        5.8735927711	       -0.2315303299	       -0.2720746930	       -0.5852896724	        8.2870725340	        6.4186817718	        4.2493103571	        6.1018828884	        0.0046783020	        0.5650181445	       -0.4264455872	
        1.4550000000	      -12.5593787397	       -3.2148736496	        0.7266109079	       48.6480323548	       25.0653656745	     -101.5485133835	        2.1283087397	      -55.1679552176	       26.9779543839	       13.8901907227	     -193.3537894977	       41.7816522451	       -0.0258445128	        1.4651891965	        0.2772866430	       -2.4433508945	       -1.7793129152	        2.4464324293	       -0.1437179097	        0.1333193049	       21.8540308155	       12.3536560095	      -38.7691562087	        0.8680875828	       -2.9577667461	       -3.9217565739	        5.3274947125	       -0.2329072397	       -0.3230201562	       -0.5438452127	        8.4192268684	        6.6559507987	        4.4882524438	        5.6349382851	        0.0218106464	        0.5786248352	       -0.3755258139	
        1.4600000000	      -10.3240410009	      -30.0053374532	        2.3635115243	       71.5919441948	       17.4012219564	      -84.0717528168	      -11.4260791370	      -57.2326365153	       27.7779181826	        1.3700574615	     -183.1939606721	       39.1013599941	       -0.0320197254	       -0.5952863489	       -2.4276114895	       -1.7268189768	       -1.7282554867	        2.5844723161	       -0.2510788901	        0.1390376085	       11.3704178649	       13.4397761835	      -40.1604275990	        0.4751579627	       -3.4735552396	       -4.2098939664	        4.7208907917	       -0.2316819146	       -0.3637076479	       -0.4946150513	        8.4285006007	        6.7584929859	        4.6309826119	        5.1112470970	        0.0374605783	        0.5828812749	       -0.3216362488	
        1.4650000000	      -11.6109584752	      -52.6995941793	        2.5539258330	       89.3399347903	        7.9827259934	      -62.4934560810	      -20.5592424906	      -55.8140449760	       26.4051114291	       -8.8356964415	     -172.0557436074	       36.1966378071	       -0.0383422153	       -5.2274102010	       -4.9466647314	       -0.7455602072	       -2.3175694712	        2.6890700178	       -0.3765770340	        0.1447842158	        2.0755959024	       14.9325687604	      -40.6784847728	        0.0258515117	       -3.8474668628	       -4.3655785455	        4.0720904954	       -0.2247286317	       -0.3915870028	       -0.4392937426	        8.1686814211	        6.7288100080	        4.6770369279	        4.5510403990	        0.0509685832	        0.5754781031	       -0.2672385938	
        1.4700000000	      -16.0345039369	      -65.4001937011	        0.6084858339	      100.7040379489	       -3.0458351762	      -41.2224231373	      -20.5234574205	      -49.8601745611	       22.4646027621	      -14.9721262122	     -159.9207853982	       33.0319370176	       -0.0443859774	      -11.9026187551	       -6.9655445249	        0.3419597300	       -3.4337045638	        2.7594346780	       -0.5072278358	        0.1506214480	       -5.0960224563	       16.6946571293	      -40.2157533272	       -0.4970001208	       -4.0362273416	       -4.3537137407	        3.3988769479	       -0.2130913834	       -0.4046017208	       -0.3795682354	        7.6870660344	        6.4823197576	        4.5894720795	        3.9715432965	        0.0617770995	        0.5556312275	       -0.2145345875	
        1.4750000000	      -20.6363165030	      -64.2442649365	       -2.4298566869	      105.9986656487	      -14.5372871276	      -21.4628562657	      -13.9260716035	      -41.7121201354	       17.0741892153	      -16.2186043917	     -146.1204844368	       29.7047586883	       -0.0496815474	      -19.6224868371	       -8.0063319669	        1.3369344610	       -4.9141246003	        2.8100142153	       -0.6281044715	        0.1569023001	       -9.4610052266	       18.4783491658	      -39.0488635540	       -1.0871868765	       -3.9846833988	       -4.2110772098	        2.7239735967	       -0.1970423554	       -0.4007631974	       -0.3178334065	        7.0116537202	        6.0300603677	        4.3851520290	        3.3934226030	        0.0695392428	        0.5248997756	       -0.1657168157	
        1.4800000000	      -21.1797483989	      -57.0050717883	       -4.4410139009	      106.0422288695	      -26.1910540308	       -2.9119469769	       -1.5059624352	      -34.1081299857	       12.3171272914	      -15.6679355857	     -130.2843559677	       26.3596027725	       -0.0506873153	      -26.8845940318	       -7.8551778870	        1.9237461204	       -6.5276476635	        2.8619419470	       -0.7211206700	        0.1638543364	       -9.9207719869	       19.9498889283	      -37.2501660485	       -1.7206471541	       -3.7668411451	       -3.9081104467	        2.0698506255	       -0.1771774896	       -0.3858437430	       -0.2564803341	        6.1901695947	        5.3711604739	        4.0612824615	        2.8356751875	        0.0736330649	        0.4843648434	       -0.1226882908	
        1.4850000000	      -19.8822686237	      -40.8684157399	       -5.3196043180	      102.9872223371	      -38.6181828145	       13.3284071823	       12.1939915472	      -27.9657418210	        9.3747880453	      -13.5757898826	     -112.9805457927	       23.0397079834	       -0.0507388359	      -32.2621146654	       -6.5682661590	        2.1871493506	       -8.0420445385	        2.9261071061	       -0.7791366965	        0.1713616572	       -9.0564226684	       20.8006091468	      -35.0115512298	       -2.3716595156	       -3.3176330142	       -3.4821730393	        1.4410209775	       -0.1543927947	       -0.3567175546	       -0.1963556265	        5.2749874059	        4.5346709728	        3.6376967691	        2.2996141676	        0.0754100413	        0.4359984639	       -0.0846034542	
        1.4900000000	      -14.4991477221	      -20.7660192803	       -4.0140743206	       94.7325025819	      -54.0608944720	       25.3615272083	       24.0928886861	      -23.8940554630	        8.9151133832	      -12.1889361538	      -95.5339425214	       19.7329045258	       -0.0442411720	      -34.3049888955	       -3.8618335329	        1.8782772197	       -9.1445673729	        3.0286528572	       -0.7932313289	        0.1792934801	       -5.7298046008	       20.7668275604	      -32.5011953658	       -3.0080969124	       -2.7271187688	       -2.9705468614	        0.8436769386	       -0.1295407356	       -0.3196490729	       -0.1382349523	        4.3195866900	        3.5642376279	        3.1402250319	        1.7860993374	        0.0745801008	        0.3818082877	       -0.0512587914	
        1.4950000000	       -7.8348575184	        3.8966627559	       -2.6224311939	       81.5630983185	      -75.8892203338	       25.8037529270	       35.6973686919	      -19.6006839614	        9.0405102328	      -10.9622987249	      -79.2592195183	       16.4299013614	       -0.0313458774	      -33.3028718076	        0.0342181794	        1.1490442522	       -9.9945049874	        3.1355061163	       -0.7649756963	        0.1858483279	       -1.6262513852	       19.8743471814	      -29.7843652853	       -3.6163012167	       -2.0453579293	       -2.4057366394	        0.2555977919	       -0.1030660154	       -0.2774915232	       -0.0800888824	        3.3364554911	        2.5121897460	        2.5960032467	        1.2660463293	        0.0725285399	        0.3233484699	       -0.0189076149	
        1.5000000000	       -1.4961766818	       33.1344065861	       -3.0185720721	       64.0046962331	     -106.0145260197	       20.4168997584	       48.8472267639	      -13.5320342510	        8.2882075117	       -8.9301708246	      -64.2381408375	       13.4418706458	       -0.0111462967	      -30.3287226314	        4.8536415209	        0.0832681377	      -10.8309732106	        3.2057168316	       -0.6923258060	        0.1869502875	        2.1276975633	       17.7271475616	      -26.8655932259	       -4.1988383112	       -1.3304349796	       -1.8156501277	       -0.3519629716	       -0.0750424258	       -0.2331224676	       -0.0190741189	        2.3088380331	        1.4255841284	        2.0292811447	        0.7042394104	        0.0700189864	        0.2615709541	        0.0165818830	
